<mxfile host="app.diagrams.net" modified="2022-08-12T19:54:13.539Z" agent="5.0 (Windows NT 10.0; Win64; x64) AppleWebKit/537.36 (KHTML, like Gecko) Chrome/104.0.0.0 Safari/537.36" etag="3m_ptxqfKl-6BrMilkPd" version="20.2.3" type="github">
  <diagram id="Rt_JmYz8Mibaip9UPOr0" name="Page-1">
    <mxGraphModel dx="658" dy="880" grid="1" gridSize="10" guides="1" tooltips="1" connect="1" arrows="1" fold="1" page="1" pageScale="1" pageWidth="850" pageHeight="1100" math="0" shadow="0">
      <root>
        <mxCell id="0" />
        <mxCell id="1" parent="0" />
        <mxCell id="17AyjfXWLLL0371GgYj6-14" style="edgeStyle=orthogonalEdgeStyle;rounded=0;orthogonalLoop=1;jettySize=auto;html=1;exitX=0.5;exitY=1;exitDx=0;exitDy=0;entryX=0.5;entryY=0;entryDx=0;entryDy=0;" edge="1" parent="1" source="17AyjfXWLLL0371GgYj6-2" target="17AyjfXWLLL0371GgYj6-4">
          <mxGeometry relative="1" as="geometry" />
        </mxCell>
        <mxCell id="17AyjfXWLLL0371GgYj6-2" value="Select closedPolygon or openPolygon mode" style="rounded=0;whiteSpace=wrap;html=1;" vertex="1" parent="1">
          <mxGeometry x="190" y="50" width="120" height="60" as="geometry" />
        </mxCell>
        <mxCell id="17AyjfXWLLL0371GgYj6-3" value="Upclick left mouse button, and add (x, y) to array of points." style="rounded=0;whiteSpace=wrap;html=1;" vertex="1" parent="1">
          <mxGeometry x="190" y="810" width="120" height="60" as="geometry" />
        </mxCell>
        <mxCell id="17AyjfXWLLL0371GgYj6-15" style="edgeStyle=orthogonalEdgeStyle;rounded=0;orthogonalLoop=1;jettySize=auto;html=1;exitX=0.5;exitY=1;exitDx=0;exitDy=0;" edge="1" parent="1" source="17AyjfXWLLL0371GgYj6-4" target="17AyjfXWLLL0371GgYj6-8">
          <mxGeometry relative="1" as="geometry" />
        </mxCell>
        <mxCell id="17AyjfXWLLL0371GgYj6-4" value="Move cursor to desired start point, or if array of points already contains points, end points of new line segment." style="rounded=0;whiteSpace=wrap;html=1;" vertex="1" parent="1">
          <mxGeometry x="175" y="160" width="150" height="70" as="geometry" />
        </mxCell>
        <mxCell id="17AyjfXWLLL0371GgYj6-18" style="edgeStyle=orthogonalEdgeStyle;rounded=0;orthogonalLoop=1;jettySize=auto;html=1;exitX=0.5;exitY=1;exitDx=0;exitDy=0;entryX=0.5;entryY=0;entryDx=0;entryDy=0;" edge="1" parent="1" source="17AyjfXWLLL0371GgYj6-5" target="17AyjfXWLLL0371GgYj6-9">
          <mxGeometry relative="1" as="geometry" />
        </mxCell>
        <mxCell id="17AyjfXWLLL0371GgYj6-5" value="When at desired start point, downlick. If new shape, save location of point to array of points." style="rounded=0;whiteSpace=wrap;html=1;" vertex="1" parent="1">
          <mxGeometry x="190" y="360" width="120" height="80" as="geometry" />
        </mxCell>
        <mxCell id="17AyjfXWLLL0371GgYj6-20" style="edgeStyle=orthogonalEdgeStyle;rounded=0;orthogonalLoop=1;jettySize=auto;html=1;exitX=0.5;exitY=1;exitDx=0;exitDy=0;entryX=0.5;entryY=0;entryDx=0;entryDy=0;" edge="1" parent="1" source="17AyjfXWLLL0371GgYj6-6" target="17AyjfXWLLL0371GgYj6-10">
          <mxGeometry relative="1" as="geometry" />
        </mxCell>
        <mxCell id="17AyjfXWLLL0371GgYj6-6" value="While holding down left mouse button, move cursor to desired endpoint of line segment, while showing rubber-banding of line segment." style="rounded=0;whiteSpace=wrap;html=1;" vertex="1" parent="1">
          <mxGeometry x="165" y="580" width="170" height="80" as="geometry" />
        </mxCell>
        <mxCell id="17AyjfXWLLL0371GgYj6-16" style="edgeStyle=orthogonalEdgeStyle;rounded=0;orthogonalLoop=1;jettySize=auto;html=1;exitX=0.5;exitY=1;exitDx=0;exitDy=0;entryX=0.5;entryY=0;entryDx=0;entryDy=0;" edge="1" parent="1" source="17AyjfXWLLL0371GgYj6-8" target="17AyjfXWLLL0371GgYj6-5">
          <mxGeometry relative="1" as="geometry" />
        </mxCell>
        <mxCell id="17AyjfXWLLL0371GgYj6-8" value="@ loc?" style="rhombus;whiteSpace=wrap;html=1;" vertex="1" parent="1">
          <mxGeometry x="210" y="260" width="80" height="80" as="geometry" />
        </mxCell>
        <mxCell id="17AyjfXWLLL0371GgYj6-19" style="edgeStyle=orthogonalEdgeStyle;rounded=0;orthogonalLoop=1;jettySize=auto;html=1;exitX=0.5;exitY=1;exitDx=0;exitDy=0;entryX=0.5;entryY=0;entryDx=0;entryDy=0;" edge="1" parent="1" source="17AyjfXWLLL0371GgYj6-9" target="17AyjfXWLLL0371GgYj6-6">
          <mxGeometry relative="1" as="geometry" />
        </mxCell>
        <mxCell id="17AyjfXWLLL0371GgYj6-23" value="" style="edgeStyle=orthogonalEdgeStyle;rounded=0;orthogonalLoop=1;jettySize=auto;html=1;" edge="1" parent="1" source="17AyjfXWLLL0371GgYj6-9" target="17AyjfXWLLL0371GgYj6-22">
          <mxGeometry relative="1" as="geometry" />
        </mxCell>
        <mxCell id="17AyjfXWLLL0371GgYj6-9" value="(x0, y0) = (xPrev, yPrev)?" style="rhombus;whiteSpace=wrap;html=1;" vertex="1" parent="1">
          <mxGeometry x="190" y="460" width="120" height="100" as="geometry" />
        </mxCell>
        <mxCell id="17AyjfXWLLL0371GgYj6-21" style="edgeStyle=orthogonalEdgeStyle;rounded=0;orthogonalLoop=1;jettySize=auto;html=1;exitX=0.5;exitY=1;exitDx=0;exitDy=0;" edge="1" parent="1" source="17AyjfXWLLL0371GgYj6-10" target="17AyjfXWLLL0371GgYj6-3">
          <mxGeometry relative="1" as="geometry" />
        </mxCell>
        <mxCell id="17AyjfXWLLL0371GgYj6-10" value="@ loc?" style="rhombus;whiteSpace=wrap;html=1;" vertex="1" parent="1">
          <mxGeometry x="210" y="680" width="80" height="80" as="geometry" />
        </mxCell>
        <mxCell id="17AyjfXWLLL0371GgYj6-22" value="Add polygon to ArrayList of objects to be drawn on screen." style="rounded=0;whiteSpace=wrap;html=1;" vertex="1" parent="1">
          <mxGeometry x="350" y="480" width="120" height="60" as="geometry" />
        </mxCell>
        <mxCell id="17AyjfXWLLL0371GgYj6-24" value="Yes" style="text;html=1;strokeColor=none;fillColor=none;align=center;verticalAlign=middle;whiteSpace=wrap;rounded=0;" vertex="1" parent="1">
          <mxGeometry x="290" y="460" width="60" height="30" as="geometry" />
        </mxCell>
        <mxCell id="17AyjfXWLLL0371GgYj6-25" value="No" style="text;html=1;strokeColor=none;fillColor=none;align=center;verticalAlign=middle;whiteSpace=wrap;rounded=0;" vertex="1" parent="1">
          <mxGeometry x="275" y="550" width="60" height="30" as="geometry" />
        </mxCell>
        <mxCell id="17AyjfXWLLL0371GgYj6-26" value="Yes" style="text;html=1;strokeColor=none;fillColor=none;align=center;verticalAlign=middle;whiteSpace=wrap;rounded=0;" vertex="1" parent="1">
          <mxGeometry x="260" y="330" width="60" height="30" as="geometry" />
        </mxCell>
        <mxCell id="17AyjfXWLLL0371GgYj6-27" value="Yes" style="text;html=1;strokeColor=none;fillColor=none;align=center;verticalAlign=middle;whiteSpace=wrap;rounded=0;" vertex="1" parent="1">
          <mxGeometry x="350" y="230" width="60" height="30" as="geometry" />
        </mxCell>
        <mxCell id="17AyjfXWLLL0371GgYj6-29" value="" style="endArrow=classic;html=1;rounded=0;exitX=0;exitY=0.5;exitDx=0;exitDy=0;entryX=0;entryY=0.25;entryDx=0;entryDy=0;" edge="1" parent="1" source="17AyjfXWLLL0371GgYj6-3" target="17AyjfXWLLL0371GgYj6-4">
          <mxGeometry width="50" height="50" relative="1" as="geometry">
            <mxPoint x="80" y="820" as="sourcePoint" />
            <mxPoint x="130" y="770" as="targetPoint" />
            <Array as="points">
              <mxPoint x="120" y="840" />
              <mxPoint x="120" y="178" />
            </Array>
          </mxGeometry>
        </mxCell>
        <mxCell id="17AyjfXWLLL0371GgYj6-30" value="" style="endArrow=classic;html=1;rounded=0;entryX=0.985;entryY=0.392;entryDx=0;entryDy=0;entryPerimeter=0;" edge="1" parent="1" target="17AyjfXWLLL0371GgYj6-4">
          <mxGeometry width="50" height="50" relative="1" as="geometry">
            <mxPoint x="290" y="300" as="sourcePoint" />
            <mxPoint x="340" y="250" as="targetPoint" />
            <Array as="points">
              <mxPoint x="340" y="300" />
              <mxPoint x="340" y="190" />
            </Array>
          </mxGeometry>
        </mxCell>
      </root>
    </mxGraphModel>
  </diagram>
</mxfile>
